# xmcd
#
# Track frame offsets:
#	187
#	13652
#	29527
#	41450
#	54490
#	68640
#	85295
#	96642
#	112910
#	126337
#	143327
#
# Disc length: 2090 seconds
#
# Revision: 2
# Processed by: cddbd v1.4PL0 Copyright (c) Steve Scherf et al.
# Submitted via: audiograbber 1.81.03
#
DISCID=8f08280b
DTITLE=The Oak Ridge Boys - Room Service
DYEAR=1978
DGENRE=Country
TTITLE0=If You Can't Find Love
TTITLE1=But I Do
TTITLE2=Callin' Baton Rouge
TTITLE3=It Could Have Been Ten Years Ago
TTITLE4=Lots Of Matchbooks
TTITLE5=If There were Only Time For Love
TTITLE6=Cryin' Again
TTITLE7=I'll Be True To You
TTITLE8=Come On In
TTITLE9=Lay Down Your Sword And Shield
TTITLE10=I Can Love You
EXTD=
EXTT0=
EXTT1=
EXTT2=
EXTT3=
EXTT4=
EXTT5=
EXTT6=
EXTT7=
EXTT8=
EXTT9=
EXTT10=
PLAYORDER=
